<svg xmlns="http://www.w3.org/2000/svg" xmlns:xlink="http://www.w3.org/1999/xlink" width="127" height="73" viewBox="0 0 127 73">
    <defs>
        <path id="a" d="M0 73h126.992V.057H0z"/>
    </defs>
    <g fill="none" fill-rule="evenodd">
        <path fill="#FEFEFE" d="M0 73h127V0H0z"/>
        <path fill="#151616" d="M20 55v-5h2.907v.59h-2.375v1.53h2.224v.59h-2.224v1.7H23V55z"/>
        <g>
            <path fill="#151616" d="M26.197 55.264v-.487c-.261.376-.615.561-1.061.561-.197 0-.381-.038-.552-.11a.897.897 0 0 1-.38-.283 1.026 1.026 0 0 1-.175-.416 2.941 2.941 0 0 1-.034-.525v-2.052h.566v1.836c0 .295.012.492.034.594a.584.584 0 0 0 .227.347.695.695 0 0 0 .427.127c.17 0 .328-.043.479-.13a.71.71 0 0 0 .315-.352c.062-.148.093-.365.093-.648v-1.774h.566v3.312h-.505zM27.583 55.264v-3.312h.51v.501c.129-.235.249-.39.36-.463a.639.639 0 0 1 .362-.114c.192 0 .384.06.583.18l-.195.524a.802.802 0 0 0-.415-.123.55.55 0 0 0-.334.11.594.594 0 0 0-.21.308 2.125 2.125 0 0 0-.094.654v1.735h-.567zM30.105 53.607c0 .425.093.743.28.954a.9.9 0 0 0 .704.317.905.905 0 0 0 .703-.317c.185-.213.28-.537.28-.971 0-.411-.095-.72-.282-.932a.901.901 0 0 0-.7-.317.904.904 0 0 0-.705.315c-.187.21-.28.527-.28.951m-.582 0c0-.612.173-1.068.517-1.362.286-.246.636-.37 1.05-.37.458 0 .834.15 1.126.45.29.298.436.71.436 1.236 0 .427-.064.762-.193 1.005a1.358 1.358 0 0 1-.562.57 1.662 1.662 0 0 1-.808.202c-.467 0-.845-.147-1.133-.444-.29-.298-.433-.725-.433-1.287M33.687 53.607c0 .425.093.743.28.954a.9.9 0 0 0 .704.317.905.905 0 0 0 .703-.317c.185-.213.28-.537.28-.971 0-.411-.095-.72-.282-.932a.901.901 0 0 0-.7-.317.904.904 0 0 0-.705.315c-.187.21-.28.527-.28.951m-.582 0c0-.612.173-1.068.517-1.362.286-.246.637-.37 1.05-.37.459 0 .835.15 1.126.45.291.298.437.71.437 1.236 0 .427-.064.762-.194 1.005a1.358 1.358 0 0 1-.562.57 1.657 1.657 0 0 1-.808.202c-.467 0-.844-.147-1.132-.444-.29-.298-.434-.725-.434-1.287M37.41 53.627c0 .427.087.741.262.946a.806.806 0 0 0 .632.305.818.818 0 0 0 .646-.318c.18-.21.27-.538.27-.98 0-.423-.088-.738-.264-.95-.174-.209-.384-.314-.627-.314-.241 0-.454.111-.64.335-.185.224-.278.55-.278.976zm-.511 2.906V51.95h.515v.432c.122-.17.26-.297.413-.38.152-.083.337-.128.555-.128.286 0 .538.075.755.22.22.145.383.352.495.617.112.265.166.553.166.872 0 .338-.06.643-.184.914-.123.273-.3.481-.534.624-.236.145-.48.216-.738.216-.189 0-.358-.038-.509-.117a1.124 1.124 0 0 1-.368-.3v1.612H36.9zM42.613 53.6c-.206.085-.515.156-.925.215-.232.032-.398.07-.492.111a.484.484 0 0 0-.304.45c0 .15.057.274.172.374.114.098.282.149.501.149.218 0 .413-.046.583-.141a.898.898 0 0 0 .374-.389c.06-.127.091-.314.091-.56V53.6zm.047 1.256c-.21.176-.412.3-.605.373-.195.073-.403.11-.624.11-.368 0-.65-.09-.847-.265a.883.883 0 0 1-.296-.683.89.89 0 0 1 .112-.444.909.909 0 0 1 .293-.322c.12-.083.256-.143.408-.186.11-.029.279-.057.503-.083.456-.053.793-.119 1.01-.195 0-.076.002-.125.002-.146 0-.228-.054-.39-.161-.484-.143-.127-.36-.19-.643-.19-.268 0-.464.046-.592.14-.125.093-.22.255-.28.491l-.554-.076c.051-.235.133-.425.248-.568.115-.146.283-.257.5-.335a2.25 2.25 0 0 1 .76-.117c.284 0 .516.035.694.101.177.067.308.15.393.251.083.1.143.227.176.383.02.095.027.268.027.515v.75c0 .523.013.853.037.99.024.14.072.273.144.398h-.592a1.175 1.175 0 0 1-.113-.408zM45.899 55.264v-4.572h.61v4.032h2.27v.54z"/>
            <mask id="b" fill="#fff">
                <use xlink:href="#a"/>
            </mask>
            <path fill="#151616" d="M49.437 55.264h.566v-3.312h-.566v3.312zm0-3.926h.566v-.646h-.566v.646zM50.867 55.264h.567v-3.312h-.567v3.312zm0-3.926h.567v-.646h-.567v.646zM53.532 54.762l.081.495a2.017 2.017 0 0 1-.427.052c-.206 0-.365-.033-.478-.098a.545.545 0 0 1-.239-.254c-.046-.103-.07-.325-.07-.662V52.39h-.414v-.438h.414v-.82l.565-.337v1.157h.568v.438h-.568v1.936c0 .16.008.264.029.31a.22.22 0 0 0 .097.108.359.359 0 0 0 .192.041c.064 0 .147-.006.25-.022M9.598 61.785v-4.573h3.333v.54h-2.723v1.4h2.55v.537h-2.55v1.555h2.83v.541zM15.998 61.785v-.487c-.26.375-.614.562-1.06.562-.197 0-.381-.038-.553-.111a.929.929 0 0 1-.38-.284 1.037 1.037 0 0 1-.175-.416 2.93 2.93 0 0 1-.033-.525v-2.052h.566v1.836c0 .295.011.492.034.593.035.15.112.264.225.35.117.084.26.125.429.125.17 0 .328-.043.478-.129a.72.72 0 0 0 .316-.354c.062-.147.092-.363.092-.645v-1.776h.567v3.313h-.506zM17.385 61.785v-3.313h.509v.503c.13-.235.25-.392.36-.465a.635.635 0 0 1 .363-.114c.192 0 .384.061.582.182l-.195.522a.802.802 0 0 0-.414-.124.546.546 0 0 0-.335.111.594.594 0 0 0-.21.308 2.125 2.125 0 0 0-.094.654v1.736h-.566zM19.906 60.129c0 .425.094.74.28.952a.903.903 0 0 0 .704.317.905.905 0 0 0 .702-.317c.186-.213.28-.537.28-.972 0-.41-.094-.72-.281-.931a.903.903 0 0 0-.7-.316.91.91 0 0 0-.705.314c-.186.21-.28.527-.28.953m-.582 0c0-.615.172-1.069.516-1.364.287-.246.637-.37 1.05-.37.46 0 .835.151 1.126.45.292.298.437.71.437 1.236 0 .427-.064.762-.193 1.006a1.354 1.354 0 0 1-.562.57 1.659 1.659 0 0 1-.808.203c-.467 0-.845-.15-1.133-.446-.29-.298-.433-.725-.433-1.285M23.488 60.129c0 .425.094.74.28.952a.903.903 0 0 0 .704.317.905.905 0 0 0 .702-.317c.186-.213.28-.537.28-.972 0-.41-.094-.72-.281-.931a.903.903 0 0 0-.701-.316.91.91 0 0 0-.704.314c-.186.21-.28.527-.28.953m-.582 0c0-.615.172-1.069.516-1.364.287-.246.637-.37 1.05-.37.46 0 .835.151 1.126.45.292.298.437.71.437 1.236 0 .427-.064.762-.192 1.006-.13.246-.318.435-.563.57a1.659 1.659 0 0 1-.808.203c-.467 0-.845-.15-1.133-.446-.288-.298-.433-.725-.433-1.285M27.212 60.147c0 .427.087.741.261.946a.803.803 0 0 0 .632.305.818.818 0 0 0 .647-.318c.179-.21.268-.536.268-.979 0-.424-.088-.738-.262-.949-.176-.211-.384-.316-.627-.316-.242 0-.455.111-.64.337-.186.222-.279.547-.279.974zm-.512 2.907v-4.583h.516v.432c.121-.17.259-.295.41-.38.154-.083.34-.128.558-.128.286 0 .536.075.755.22.217.145.382.351.493.616.112.265.168.556.168.873 0 .338-.061.643-.186.916-.122.271-.3.48-.534.622a1.378 1.378 0 0 1-.736.217c-.19 0-.359-.04-.51-.119a1.127 1.127 0 0 1-.369-.3v1.614H26.7zM32.414 60.12c-.206.086-.514.156-.925.215-.232.032-.397.07-.493.111a.484.484 0 0 0-.302.45c0 .15.058.274.171.375.114.099.282.148.5.148.219 0 .414-.046.583-.141a.872.872 0 0 0 .375-.39c.06-.126.09-.313.09-.56v-.207zm.048 1.256c-.211.176-.413.3-.606.375-.194.071-.404.109-.624.109-.368 0-.65-.089-.847-.267a.883.883 0 0 1-.296-.682.922.922 0 0 1 .405-.767c.12-.08.256-.142.408-.185.11-.027.278-.057.502-.083.458-.054.794-.119 1.01-.193l.003-.146c0-.23-.053-.39-.161-.484-.143-.129-.359-.19-.644-.19-.265 0-.462.044-.59.137-.126.094-.22.257-.282.492l-.553-.074a1.36 1.36 0 0 1 .25-.57c.113-.146.28-.257.499-.335a2.25 2.25 0 0 1 .758-.117c.286 0 .517.035.694.101.178.067.31.15.394.251.085.1.142.227.176.382.02.097.027.269.027.518v.749c0 .522.013.852.037.99.026.138.072.271.144.398h-.592a1.184 1.184 0 0 1-.112-.409zM35.427 60.795l.56-.087c.03.223.119.393.263.514.142.117.344.176.603.176s.451-.052.577-.159a.463.463 0 0 0 .19-.368.345.345 0 0 0-.169-.301c-.077-.05-.27-.112-.577-.19-.415-.102-.704-.193-.864-.27a.837.837 0 0 1-.365-.315.822.822 0 0 1-.123-.443.885.885 0 0 1 .38-.724c.088-.064.208-.118.359-.164.153-.045.317-.069.49-.069.262 0 .492.04.69.115a.929.929 0 0 1 .439.303c.094.128.158.298.194.512l-.552.077a.61.61 0 0 0-.22-.4c-.12-.094-.29-.143-.51-.143-.26 0-.446.043-.557.127-.11.085-.168.187-.168.3 0 .074.026.14.07.196.047.06.119.11.218.151.056.02.223.068.5.141.401.108.68.194.838.262a.843.843 0 0 1 .373.295.81.81 0 0 1 .136.481.938.938 0 0 1-.167.529 1.07 1.07 0 0 1-.475.382 1.726 1.726 0 0 1-.706.137c-.433 0-.764-.09-.992-.268-.228-.18-.372-.445-.435-.797M40.11 61.282l.08.495c-.158.035-.3.052-.426.052-.207 0-.365-.033-.479-.098a.545.545 0 0 1-.238-.254c-.047-.103-.07-.326-.07-.662v-1.906h-.415v-.438h.414v-.819l.565-.338v1.157h.568v.438h-.568v1.938c0 .158.008.262.029.308a.24.24 0 0 0 .098.11.377.377 0 0 0 .193.04c.063 0 .146-.008.248-.023M40.657 61.785v-3.313h.509v.503c.13-.235.25-.392.36-.465a.639.639 0 0 1 .363-.114c.192 0 .384.061.582.182l-.195.522a.802.802 0 0 0-.414-.124.55.55 0 0 0-.335.111.594.594 0 0 0-.21.308 2.125 2.125 0 0 0-.094.654v1.736h-.566zM44.997 61.785v-.487c-.261.375-.615.562-1.061.562-.195 0-.381-.038-.55-.111a.929.929 0 0 1-.381-.284 1.037 1.037 0 0 1-.175-.416 2.753 2.753 0 0 1-.035-.525v-2.052h.566v1.836c0 .295.012.492.034.593.037.15.112.264.227.35a.705.705 0 0 0 .427.125.94.94 0 0 0 .479-.129.72.72 0 0 0 .315-.354c.062-.147.093-.363.093-.645v-1.776h.566v3.313h-.505zM46.392 61.785v-4.573h.566v2.607l1.341-1.347h.731l-1.275 1.23 1.405 2.083h-.698l-1.104-1.693-.4.38v1.313zM50.846 61.282l.082.495a2.017 2.017 0 0 1-.428.052c-.206 0-.364-.033-.478-.098a.545.545 0 0 1-.238-.254c-.047-.103-.07-.326-.07-.662v-1.906h-.415v-.438h.414v-.819l.565-.338v1.157h.568v.438h-.568v1.938c0 .158.008.262.029.308a.24.24 0 0 0 .097.11.377.377 0 0 0 .194.04c.062 0 .146-.008.248-.023M53.589 61.785v-.487c-.261.375-.615.562-1.061.562-.197 0-.38-.038-.552-.111a.923.923 0 0 1-.38-.284.994.994 0 0 1-.174-.416 2.753 2.753 0 0 1-.035-.525v-2.052h.567v1.836c0 .295.01.492.033.593.037.15.112.264.227.35a.705.705 0 0 0 .428.125c.17 0 .328-.043.478-.129a.72.72 0 0 0 .315-.354c.063-.147.093-.363.093-.645v-1.776h.566v3.313h-.505zM57.17 61.785v-.487c-.26.375-.614.562-1.06.562-.197 0-.38-.038-.552-.111a.929.929 0 0 1-.38-.284 1.013 1.013 0 0 1-.174-.416 2.753 2.753 0 0 1-.035-.525v-2.052h.567v1.836c0 .295.01.492.033.593.035.15.112.264.226.35.117.084.26.125.429.125.17 0 .328-.043.478-.129a.72.72 0 0 0 .315-.354c.063-.147.093-.363.093-.645v-1.776h.566v3.313h-.505zM58.558 61.785v-3.313h.508v.503c.13-.235.25-.392.36-.465a.635.635 0 0 1 .364-.114c.192 0 .384.061.582.182l-.195.522a.802.802 0 0 0-.415-.124.546.546 0 0 0-.334.111.594.594 0 0 0-.21.308 2.125 2.125 0 0 0-.094.654v1.736h-.566zM60.71 61.785h.567v-3.314h-.567v3.314zm0-3.928h.567v-.646h-.567v.646zM61.918 60.41h1.74v-.563h-1.74zM5.213 69.59l.106-.478c.113.03.203.045.267.045.117 0 .202-.039.258-.115.057-.076.086-.266.086-.57v-3.48h.565v3.495c0 .408-.053.69-.159.85-.137.208-.363.313-.68.313-.153 0-.302-.02-.443-.06zm.717-5.205h.566v-.653H5.93v.653zM9.496 66.642c-.207.084-.515.154-.925.213a2.16 2.16 0 0 0-.493.11.484.484 0 0 0-.304.45c0 .15.058.275.173.376.114.099.282.148.5.148.218 0 .414-.046.582-.14a.888.888 0 0 0 .376-.39c.06-.127.09-.315.09-.56v-.207zm.046 1.254c-.21.176-.411.3-.605.374a1.77 1.77 0 0 1-.625.11c-.367 0-.648-.089-.845-.267a.882.882 0 0 1-.296-.68.922.922 0 0 1 .405-.768c.12-.082.256-.143.408-.186.11-.027.278-.057.502-.083.456-.054.794-.117 1.01-.193l.003-.146c0-.23-.054-.39-.162-.484-.142-.129-.36-.19-.643-.19-.267 0-.464.045-.592.137-.125.094-.219.257-.28.494l-.553-.076a1.37 1.37 0 0 1 .248-.57c.115-.145.283-.257.5-.335.218-.076.47-.116.759-.116.285 0 .517.035.694.1.178.068.309.15.394.252.083.1.14.226.176.381.019.097.027.269.027.518v.749c0 .522.013.852.037.99s.072.271.144.398h-.592a1.184 1.184 0 0 1-.114-.41zM12.738 68.306h.566v-3.314h-.566v3.314zm0-3.928h.566v-.646h-.566v.646zM14.166 68.305v-3.314h.509v.472c.246-.365.6-.546 1.062-.546.202 0 .388.036.556.108.17.073.296.165.379.282.085.118.142.254.177.414.02.105.03.288.03.548v2.036h-.566v-2.017c0-.227-.022-.397-.065-.513a.54.54 0 0 0-.234-.27.75.75 0 0 0-.395-.101.93.93 0 0 0-.626.227c-.174.152-.26.44-.26.865v1.809h-.567zM18.676 68.305l-1.27-3.314h.598l.716 1.984c.077.214.148.438.213.668.05-.174.12-.384.21-.628l.744-2.024h.582l-1.265 3.314h-.528zM21.395 66.33h1.866c-.026-.279-.098-.488-.215-.628a.877.877 0 0 0-.7-.324.91.91 0 0 0-.657.26c-.177.172-.275.402-.294.691m1.86.91l.583.07a1.403 1.403 0 0 1-.512.79c-.25.185-.568.28-.957.28-.488 0-.875-.149-1.161-.447-.285-.298-.429-.716-.429-1.255 0-.559.146-.99.434-1.299.29-.307.665-.461 1.126-.461.446 0 .811.15 1.094.454.284.3.426.725.426 1.27 0 .036-.002.085-.005.151h-2.49c.021.364.125.643.311.835a.93.93 0 0 0 .698.29.859.859 0 0 0 .53-.163c.15-.106.265-.278.351-.516M24.324 67.316l.56-.089c.03.224.118.394.262.515.143.117.344.176.602.176.26 0 .453-.053.58-.157a.473.473 0 0 0 .188-.37.34.34 0 0 0-.168-.3c-.077-.05-.27-.113-.578-.19-.414-.104-.704-.194-.864-.27a.827.827 0 0 1-.364-.316.822.822 0 0 1-.124-.443.89.89 0 0 1 .38-.724c.09-.063.21-.118.36-.165.153-.044.315-.066.49-.066.262 0 .49.04.689.114.2.073.345.175.44.302.094.13.158.298.193.514l-.552.074a.602.602 0 0 0-.219-.398c-.12-.095-.291-.144-.51-.144-.261 0-.447.042-.557.127-.112.085-.168.187-.168.3 0 .074.024.14.07.198.047.06.119.108.218.15.056.018.222.067.5.14.4.108.68.196.838.262a.843.843 0 0 1 .372.295.82.82 0 0 1 .135.481.936.936 0 0 1-.165.529c-.11.165-.269.292-.475.384-.208.09-.443.135-.706.135-.433 0-.765-.09-.993-.269-.228-.179-.372-.444-.434-.795M29.006 67.803l.082.495c-.159.033-.301.05-.428.05-.206 0-.364-.033-.478-.096a.556.556 0 0 1-.238-.256c-.047-.103-.07-.325-.07-.661v-1.906h-.415v-.437h.414v-.82l.565-.337v1.157h.568v.437h-.568v1.937c0 .16.008.264.029.308.02.046.053.083.097.11a.377.377 0 0 0 .194.041c.062 0 .146-.008.248-.022M29.987 66.33h1.866c-.026-.279-.098-.488-.214-.628a.877.877 0 0 0-.701-.324c-.26 0-.48.088-.656.26-.178.172-.275.402-.295.691m1.858.91l.586.07c-.093.34-.263.602-.512.79-.25.185-.568.28-.957.28-.488 0-.875-.149-1.162-.447-.286-.298-.429-.716-.429-1.255 0-.559.146-.99.434-1.299.29-.307.664-.461 1.126-.461.447 0 .812.15 1.093.454.285.3.426.725.426 1.27 0 .036 0 .085-.003.151h-2.492c.021.364.127.643.312.835a.93.93 0 0 0 .698.29.859.859 0 0 0 .531-.163c.147-.106.264-.278.349-.516M33.57 66.33h1.865c-.026-.279-.098-.488-.215-.628a.877.877 0 0 0-.7-.324c-.26 0-.48.088-.656.26-.178.172-.276.402-.295.691m1.86.91l.583.07c-.092.34-.262.602-.512.79-.25.185-.568.28-.956.28-.488 0-.876-.149-1.162-.447-.286-.298-.429-.716-.429-1.255 0-.559.146-.99.434-1.299.29-.307.664-.461 1.126-.461.447 0 .811.15 1.093.454.285.3.426.725.426 1.27 0 .036 0 .085-.004.151h-2.49c.02.364.126.643.311.835a.93.93 0 0 0 .698.29.859.859 0 0 0 .531-.163c.147-.106.264-.278.35-.516M36.718 68.305v-3.314h.509v.503c.13-.234.25-.39.36-.463a.639.639 0 0 1 .363-.114c.192 0 .384.06.582.18l-.195.523a.802.802 0 0 0-.414-.124.541.541 0 0 0-.335.113.596.596 0 0 0-.21.306c-.063.2-.094.419-.094.655v1.735h-.566zM38.87 68.306h.567v-3.314h-.567v3.314zm0-3.928h.567v-.646h-.567v.646zM40.3 68.305v-3.314h.505v.465c.106-.16.245-.292.42-.39.174-.1.372-.15.595-.15.246 0 .448.052.606.155a.811.811 0 0 1 .336.425c.264-.386.608-.58 1.03-.58.333 0 .588.093.765.274.178.182.268.462.268.84v2.275h-.562v-2.087c0-.225-.02-.387-.056-.485a.482.482 0 0 0-.2-.239.626.626 0 0 0-.34-.09.798.798 0 0 0-.585.232c-.153.155-.232.403-.232.744v1.925h-.566v-2.152c0-.25-.047-.438-.14-.562-.09-.125-.241-.187-.452-.187a.81.81 0 0 0-.442.125.702.702 0 0 0-.293.364c-.06.162-.09.393-.09.693v1.719H40.3zM45.667 68.306h.567v-3.314h-.567v3.314zm0-3.928h.567v-.646h-.567v.646zM46.87 67.316l.56-.089c.03.224.118.394.262.515.144.117.344.176.603.176.26 0 .451-.053.577-.157a.468.468 0 0 0 .19-.37.343.343 0 0 0-.167-.3c-.079-.05-.27-.113-.58-.19-.414-.104-.703-.194-.862-.27a.831.831 0 0 1-.366-.316.836.836 0 0 1-.123-.443.895.895 0 0 1 .38-.724c.088-.063.208-.118.359-.165.153-.044.317-.066.491-.066.26 0 .491.04.69.114a.927.927 0 0 1 .438.302c.094.13.16.298.195.514l-.553.074a.596.596 0 0 0-.22-.398c-.12-.095-.29-.144-.51-.144-.26 0-.445.042-.557.127-.11.085-.166.187-.166.3 0 .074.024.14.069.198.046.06.118.108.217.15.056.018.223.067.501.14.4.108.678.196.837.262a.843.843 0 0 1 .373.295.81.81 0 0 1 .136.481.938.938 0 0 1-.167.529 1.074 1.074 0 0 1-.475.384 1.75 1.75 0 0 1-.704.135c-.435 0-.766-.09-.994-.269-.228-.179-.372-.444-.435-.795M50.45 68.305v-2.876h-.499v-.438h.5v-.352c0-.22.02-.389.06-.495a.723.723 0 0 1 .287-.355c.137-.09.33-.135.577-.135.16 0 .336.019.528.055l-.084.49a1.921 1.921 0 0 0-.333-.03c-.171 0-.293.035-.365.11-.07.071-.107.208-.107.408v.304h.651v.438h-.651v2.876h-.563zM52.476 66.648c0 .426.093.743.28.954.188.21.423.316.704.316a.9.9 0 0 0 .703-.317c.185-.213.28-.537.28-.972 0-.41-.095-.72-.282-.931a.905.905 0 0 0-.7-.316.91.91 0 0 0-.705.314c-.187.211-.28.527-.28.952m-.582 0c0-.614.173-1.068.517-1.363.286-.246.637-.368 1.05-.368.459 0 .835.15 1.126.448.29.298.437.71.437 1.237 0 .426-.064.76-.194 1.005a1.354 1.354 0 0 1-.562.57 1.646 1.646 0 0 1-.808.203c-.467 0-.844-.15-1.132-.446-.29-.299-.434-.725-.434-1.286M55.688 68.305v-3.314h.509v.472c.245-.365.6-.546 1.062-.546.202 0 .388.036.556.108.17.073.294.165.377.282.087.118.144.254.178.414.02.105.032.288.032.548v2.036h-.568v-2.017c0-.227-.021-.397-.064-.513a.543.543 0 0 0-.235-.27.743.743 0 0 0-.396-.101.926.926 0 0 0-.624.227c-.174.152-.26.44-.26.865v1.809h-.567zM59.647 66.652c0 .425.09.742.27.952.18.208.394.314.639.314a.804.804 0 0 0 .63-.302c.173-.2.26-.506.26-.918 0-.454-.089-.786-.265-.999a.816.816 0 0 0-1.281-.01c-.168.202-.253.525-.253.963zm1.789 1.653v-.419c-.212.329-.522.494-.933.494a1.31 1.31 0 0 1-.735-.22 1.432 1.432 0 0 1-.52-.61 2.073 2.073 0 0 1-.184-.898c0-.33.056-.63.167-.9a1.313 1.313 0 0 1 1.246-.835 1.124 1.124 0 0 1 .922.455v-1.64h.561v4.573h-.524zM62.854 68.306h.567v-3.314h-.567v3.314zm0-3.928h.567v-.646h-.567v.646zM64.66 66.652c0 .425.09.742.27.952.18.208.393.314.638.314a.804.804 0 0 0 .63-.302c.173-.2.261-.506.261-.918 0-.454-.09-.786-.264-.999a.818.818 0 0 0-1.283-.01c-.168.202-.253.525-.253.963zm1.788 1.653v-.419c-.211.329-.522.494-.933.494-.267 0-.51-.073-.734-.22a1.442 1.442 0 0 1-.52-.61 2.096 2.096 0 0 1-.183-.898c0-.33.055-.63.167-.9a1.31 1.31 0 0 1 .499-.62c.222-.144.472-.215.747-.215a1.113 1.113 0 0 1 .92.455v-1.64h.563v4.573h-.526z" mask="url(#b)"/>
            <path fill="#1F46A1" d="M4.611 46.634h63.477V4.518H4.611z" mask="url(#b)"/>
            <path fill="#FAE016" d="M36.817 10.652h1.829l-1.474 1.098.57 1.74-1.467-1.069-1.47 1.068.578-1.74-1.486-1.097h1.827l.55-1.695zM36.895 38.717h1.83l-1.47 1.095.568 1.742-1.466-1.074-1.472 1.074.583-1.742-1.49-1.095h1.824l.555-1.696zM43.9 36.857h1.832l-1.477 1.095.573 1.737-1.467-1.07-1.474 1.07.58-1.737-1.487-1.095h1.827l.554-1.702zM43.9 12.501h1.832L44.255 13.6l.573 1.735-1.467-1.068-1.474 1.068.58-1.735-1.487-1.098h1.827l.554-1.695zM49.1 17.654h1.826l-1.47 1.095.573 1.746-1.468-1.073-1.47 1.073.576-1.746-1.488-1.095h1.826l.556-1.691zM49.1 31.768h1.826l-1.47 1.095.573 1.74-1.468-1.069-1.47 1.07.576-1.741-1.488-1.095h1.826l.556-1.695zM51.048 24.606h1.83L51.406 25.7l.57 1.742-1.466-1.07-1.469 1.07.58-1.742-1.485-1.095h1.819l.555-1.698zM29.672 12.519h1.832l-1.476 1.098.574 1.738-1.469-1.073-1.469 1.073.58-1.738-1.485-1.098h1.822l.552-1.698zM24.618 17.675h1.832l-1.477 1.095.573 1.74-1.467-1.07-1.47 1.07.58-1.74-1.488-1.095h1.824l.554-1.693zM22.743 24.624h1.825L23.1 25.72l.57 1.74-1.466-1.072-1.47 1.071.577-1.739-1.487-1.096h1.823l.557-1.695zM24.618 31.786h1.832l-1.477 1.095.573 1.74-1.467-1.07-1.47 1.07.58-1.74-1.488-1.095h1.824l.554-1.695zM29.745 36.872h1.83L30.1 37.97l.572 1.738-1.466-1.071-1.47 1.07.58-1.737-1.488-1.098h1.826l.552-1.698z" mask="url(#b)"/>
            <path fill="#0580BE" d="M103.444 12.91a30.665 30.665 0 0 1 13.464 4.523c.004.007.108.076.273.18-4.987-7.058-13.03-12-22.456-12.866-8.25-.754-16.024 1.749-21.998 6.422a21.944 21.944 0 0 1 11.557 6.294 30.735 30.735 0 0 1 19.16-4.553" mask="url(#b)"/>
            <path fill="#FEFEFE" d="M122.508 32.26c-.002 0-.002-.002-.002-.002l.002.04v-.039z" mask="url(#b)"/>
            <path fill="#151616" d="M122.536 32.604l-.05-.603c-.464-5.272-2.346-10.204-5.306-14.387a4.445 4.445 0 0 1-.273-.181 30.679 30.679 0 0 0-13.464-4.523 30.738 30.738 0 0 0-19.159 4.553c3.41 3.53 5.62 8.166 6.052 13.246a22.073 22.073 0 0 1-.013 3.874 21.582 21.582 0 0 1-1.383 5.85 21.791 21.791 0 0 1-6.036 8.558l.048-.044c10.16-5.836 22.756-8.35 35.174-6.482-1.126 1.056-2.82 1.955-4.197 2.663 1.679-.433 7.576-2.769 7.661-2.945 0 0 .005-.003.005-.005h-.005s1.378-4.421.946-9.574" mask="url(#b)"/>
            <path fill="#FEFEFE" d="M121.992 31.91c-3.93-2.64-7.17-4.233-14.014-4.863a30.746 30.746 0 0 0-14.72 2.249c.115 1.246.124 2.52.003 3.812-.586 6.265-3.946 11.602-8.765 14.949 12.462-7.108 23.792-8.059 33.387-6.606.637.1 2.61.438 3.522.677 1.115-5.572.726-9.258.587-10.218" mask="url(#b)"/>
            <path fill="#151616" d="M96.81 55.282V50.71h3.335v.54h-2.723v1.401h2.55v.537h-2.55v1.555h2.829v.54zM101.45 53.308h1.864c-.024-.278-.096-.489-.213-.627a.879.879 0 0 0-.7-.323.904.904 0 0 0-.657.258c-.177.173-.275.403-.294.692m1.857.908l.586.071c-.091.34-.264.603-.512.79-.25.186-.568.281-.957.281-.488 0-.875-.15-1.161-.447-.287-.298-.43-.716-.43-1.255 0-.559.145-.99.434-1.298.29-.308.664-.464 1.127-.464.446 0 .811.152 1.093.454.283.302.425.727.425 1.271l-.003.15h-2.491c.02.366.126.644.312.836.187.195.419.292.697.292a.862.862 0 0 0 .532-.164c.147-.106.262-.28.348-.517M104.378 54.294l.56-.088c.03.222.118.392.262.513.144.119.344.178.604.178.259 0 .452-.053.577-.16a.47.47 0 0 0 .189-.367.347.347 0 0 0-.166-.302c-.079-.049-.27-.112-.58-.189-.414-.103-.704-.193-.864-.27a.823.823 0 0 1-.488-.759c0-.148.034-.285.103-.41a.909.909 0 0 1 .278-.314c.088-.064.208-.118.359-.164.153-.044.316-.068.49-.068.262 0 .492.04.69.114a.929.929 0 0 1 .439.303c.094.129.16.299.193.513l-.55.076a.618.618 0 0 0-.22-.4c-.12-.095-.292-.142-.511-.142-.261 0-.447.042-.557.126-.11.086-.168.188-.168.3a.31.31 0 0 0 .07.197c.047.06.119.11.218.15.056.02.224.07.5.142.4.108.68.194.838.26a.857.857 0 0 1 .372.297.82.82 0 0 1 .135.481.95.95 0 0 1-.163.529 1.08 1.08 0 0 1-.479.382 1.71 1.71 0 0 1-.702.136c-.435 0-.767-.09-.995-.27-.226-.177-.372-.442-.434-.794M109.06 54.78l.082.495a2.03 2.03 0 0 1-.427.053c-.206 0-.365-.034-.48-.099a.534.534 0 0 1-.237-.253c-.046-.104-.07-.326-.07-.662v-1.906h-.416v-.438h.416v-.82l.565-.337v1.157h.568v.438h-.568v1.936c0 .16.008.263.027.31.02.044.053.082.1.109a.374.374 0 0 0 .191.041c.064 0 .147-.008.25-.024M109.618 55.283h.566v-3.312h-.566v3.312zm0-3.926h.566v-.646h-.566v.646zM84.714 61.274l.083.495c-.16.035-.304.052-.429.052-.206 0-.364-.033-.478-.098a.545.545 0 0 1-.238-.254c-.045-.103-.07-.325-.07-.662v-1.906h-.415v-.438h.414v-.819l.565-.338v1.157h.568v.438h-.568v1.938c0 .159.008.262.029.308a.24.24 0 0 0 .097.11.377.377 0 0 0 .194.04c.062 0 .146-.007.248-.023M87.458 61.778v-.488c-.261.375-.615.562-1.061.562-.197 0-.381-.038-.552-.113a.913.913 0 0 1-.381-.282 1.037 1.037 0 0 1-.174-.416 2.894 2.894 0 0 1-.036-.525v-2.052h.567V60.3c0 .295.011.492.033.594.037.149.112.263.228.349.116.084.259.125.428.125.17 0 .328-.043.477-.128a.713.713 0 0 0 .315-.354c.063-.148.095-.364.095-.646v-1.776h.565v3.314h-.504zM88.837 61.777h.566v-4.574h-.566zM90.708 59.802h1.865c-.025-.278-.097-.49-.214-.627a.874.874 0 0 0-.7-.324.898.898 0 0 0-.655.259c-.18.173-.276.403-.296.692m1.859.907l.584.072c-.091.34-.263.603-.512.79-.25.186-.568.28-.957.28-.486 0-.875-.148-1.16-.447-.288-.298-.43-.715-.43-1.255 0-.558.145-.99.435-1.298.288-.308.664-.463 1.125-.463.446 0 .812.152 1.092.453.285.302.428.727.428 1.272 0 .035-.002.085-.005.15h-2.49c.021.365.125.643.312.837.186.193.418.29.696.29a.859.859 0 0 0 .531-.163c.148-.107.264-.28.35-.518M94.79 61.778l-1.27-3.314h.597l.717 1.984c.078.214.148.438.214.668.05-.175.12-.384.211-.63l.743-2.022h.58l-1.264 3.314h-.528zM97.086 61.777h.567v-3.314h-.567v3.314zm0-3.928h.567v-.646h-.567v.646zM98.517 61.778v-4.574h.566v2.607l1.34-1.347h.73l-1.274 1.23 1.406 2.084h-.7l-1.102-1.695-.4.382v1.313zM103.923 61.778v-.488c-.26.375-.614.562-1.06.562-.196 0-.381-.038-.553-.113a.918.918 0 0 1-.379-.282.994.994 0 0 1-.174-.416 2.894 2.894 0 0 1-.035-.525v-2.052h.566V60.3c0 .295.011.492.034.594.035.149.112.263.227.349.115.084.259.125.427.125a.944.944 0 0 0 .478-.128.72.72 0 0 0 .316-.354c.062-.148.094-.364.094-.646v-1.776h.565v3.314h-.506zM107.106 61.778v-4.574h.566v1.64a1.277 1.277 0 0 1 1-.456c.247 0 .463.05.645.147.181.096.312.23.39.4.08.17.12.42.12.743v2.1h-.567v-2.1c0-.28-.061-.486-.184-.613-.124-.128-.296-.193-.522-.193a.927.927 0 0 0-.472.13.725.725 0 0 0-.315.352c-.064.146-.095.351-.095.61v1.814h-.566zM111.115 59.802h1.864c-.024-.278-.096-.49-.212-.627a.879.879 0 0 0-.701-.324.904.904 0 0 0-.656.259c-.178.173-.275.403-.295.692m1.858.907l.586.072c-.092.34-.264.603-.512.79-.25.186-.568.28-.957.28-.488 0-.875-.148-1.162-.447-.286-.298-.429-.715-.429-1.255 0-.558.144-.99.434-1.298.29-.308.666-.463 1.126-.463.447 0 .812.152 1.093.453.283.302.426.727.426 1.272l-.003.15h-2.492c.021.365.127.643.312.837a.93.93 0 0 0 .698.29.862.862 0 0 0 .531-.163c.147-.107.263-.28.349-.518M116.403 60.113c-.207.086-.515.155-.925.214-.234.032-.398.07-.494.111a.487.487 0 0 0-.132.826c.116.098.282.147.503.147.217 0 .413-.046.58-.141a.872.872 0 0 0 .375-.389c.06-.127.093-.314.093-.56v-.208zm.046 1.255c-.21.176-.413.3-.606.375a1.79 1.79 0 0 1-.624.11c-.367 0-.648-.09-.847-.267a.881.881 0 0 1-.294-.683c0-.162.037-.31.112-.444a.903.903 0 0 1 .291-.322c.122-.081.258-.143.41-.186.109-.028.278-.057.5-.082.458-.054.796-.12 1.012-.194l.003-.146c0-.23-.054-.39-.162-.484-.142-.129-.36-.19-.644-.19-.266 0-.463.044-.59.138-.127.093-.22.257-.282.492l-.552-.075a1.35 1.35 0 0 1 .248-.57c.115-.146.281-.257.499-.335.22-.077.47-.117.76-.117a2 2 0 0 1 .693.102c.179.066.31.149.393.25.085.1.143.227.178.383.017.097.027.268.027.517v.75c0 .521.011.851.037.99.024.137.072.27.144.398h-.592a1.15 1.15 0 0 1-.114-.41zM117.855 61.778v-4.574h.566v2.607l1.34-1.347h.732l-1.275 1.23 1.405 2.084h-.698l-1.104-1.695-.4.382v1.313zM120.847 60.787l.56-.087c.03.224.118.392.262.512.143.12.344.178.602.178.26 0 .453-.052.579-.159a.468.468 0 0 0 .189-.368.345.345 0 0 0-.168-.301c-.077-.05-.27-.111-.58-.19-.412-.102-.702-.193-.862-.269a.828.828 0 0 1-.365-.316.822.822 0 0 1-.123-.442c0-.15.032-.286.1-.411a.905.905 0 0 1 .28-.313c.089-.065.209-.12.36-.165.151-.045.315-.068.489-.068.26 0 .493.04.691.114a.916.916 0 0 1 .437.303c.096.129.16.298.195.513l-.552.076a.61.61 0 0 0-.22-.4c-.12-.094-.29-.143-.51-.143-.26 0-.446.043-.556.127-.11.086-.168.187-.168.3 0 .074.024.138.07.197a.52.52 0 0 0 .216.15c.058.02.224.069.5.142.403.108.68.193.838.26.16.068.285.168.373.297a.81.81 0 0 1 .136.48.949.949 0 0 1-.165.529c-.11.165-.27.292-.477.382a1.713 1.713 0 0 1-.704.137c-.435 0-.765-.09-.994-.268-.227-.18-.37-.445-.433-.797" mask="url(#b)"/>
        </g>
    </g>
</svg>
